<?xml version="1.0" standalone="no"?>
<!DOCTYPE svg PUBLIC "-//W3C//DTD SVG 20010904//EN"
 "http://www.w3.org/TR/2001/REC-SVG-20010904/DTD/svg10.dtd">
<svg version="1.0" xmlns="http://www.w3.org/2000/svg"
 width="2559.000000pt" height="2559.000000pt" viewBox="0 0 2559.000000 2559.000000"
 preserveAspectRatio="xMidYMid meet">
<metadata>
Created by potrace 1.14, written by Peter Selinger 2001-2017
</metadata>
<g transform="translate(0.000000,2559.000000) scale(0.100000,-0.100000)"
fill="#000000" stroke="none">
<path d="M11975 25111 c-231 -97 -475 -205 -542 -239 -791 -407 -1540 -1204
-2181 -2323 -325 -567 -629 -1227 -902 -1953 -140 -376 -255 -721 -423 -1273
l-134 -443 2314 0 2313 0 0 3205 c0 2558 -3 3205 -12 3204 -7 -1 -202 -81
-433 -178z"/>
<path d="M13170 22086 l0 -3206 2315 0 c1847 0 2313 3 2310 13 -2 6 -65 212
-139 457 -342 1130 -662 1951 -1062 2727 -462 898 -912 1537 -1460 2073 -331
323 -656 561 -1013 739 -113 57 -853 372 -928 395 l-23 7 0 -3205z"/>
<path d="M9320 24759 c-1031 -392 -1143 -436 -1345 -521 -1328 -560 -2532
-1334 -3589 -2308 -622 -574 -1188 -1213 -1686 -1905 -99 -137 -770 -1131
-770 -1140 0 -3 1142 -5 2538 -5 l2538 0 63 238 c401 1507 852 2664 1448 3711
222 390 285 485 976 1468 528 752 502 713 490 712 -4 0 -303 -112 -663 -250z"/>
<path d="M1551 18078 c-10 -24 -60 -137 -111 -253 -415 -947 -685 -1830 -864
-2822 -82 -452 -133 -877 -176 -1468 -11 -154 -22 -299 -25 -322 l-5 -43 2979
0 2978 0 7 273 c33 1321 126 2420 302 3559 30 201 95 580 167 986 l24 132
-2629 0 -2629 0 -18 -42z"/>
<path d="M7625 18108 c-7 -22 -104 -520 -150 -778 -210 -1164 -332 -2346 -375
-3630 -5 -168 -12 -356 -15 -417 l-6 -113 2671 0 2670 0 0 2475 0 2475 -2395
0 c-1908 0 -2397 -3 -2400 -12z"/>
<path d="M18787 17988 c123 -689 180 -1041 237 -1468 126 -927 206 -1970 231
-2990 3 -129 8 -263 11 -297 l6 -63 2974 0 2974 0 -5 43 c-3 23 -17 195 -31
382 -49 666 -115 1157 -230 1719 -187 915 -496 1853 -897 2729 l-36 77 -2629
0 -2629 0 24 -132z"/>
<path d="M374 12388 c3 -18 8 -76 11 -128 78 -1226 239 -2137 562 -3185 132
-428 292 -851 528 -1390 l92 -210 2630 -3 2630 -2 -24 132 c-72 406 -137 785
-167 986 -176 1139 -269 2238 -302 3560 l-7 272 -2979 0 -2979 0 5 -32z"/>
<path d="M13170 9945 l0 -2475 2398 0 2399 0 27 143 c104 534 132 685 176 952
181 1103 280 2131 320 3325 5 168 12 356 15 418 l6 112 -2671 0 -2670 0 0
-2475z"/>
<path d="M19256 12148 c-24 -983 -87 -1892 -186 -2723 -61 -508 -139 -1014
-268 -1740 l-38 -210 2625 -3 c1444 -1 2629 2 2633 6 11 11 180 398 270 616
305 743 552 1582 702 2382 97 518 155 988 201 1649 8 121 17 237 20 258 l5 37
-2978 0 -2979 0 -7 -272z"/>
<path d="M7800 6683 c5 -16 64 -208 130 -428 144 -476 233 -747 347 -1065 458
-1268 1014 -2339 1623 -3123 310 -399 657 -751 986 -998 206 -156 433 -297
628 -390 93 -44 889 -379 901 -379 3 0 5 1442 5 3205 l0 3205 -2314 0 -2315 0
9 -27z"/>
<path d="M13170 3504 c0 -3049 1 -3206 18 -3201 58 16 817 340 932 397 373
187 674 407 1024 750 690 676 1286 1610 1823 2860 259 601 451 1142 698 1960
64 212 120 397 125 413 l9 27 -2315 0 -2314 0 0 -3206z"/>
<path d="M18580 6697 c0 -21 -192 -719 -260 -947 -412 -1376 -956 -2589 -1585
-3540 -68 -102 -351 -509 -629 -904 -278 -396 -504 -721 -503 -723 4 -3 201
70 1087 407 911 345 1157 450 1660 701 697 349 1256 695 1885 1164 1036 774
1975 1739 2717 2796 122 173 708 1045 708 1053 0 3 -1143 6 -2540 6 -2098 0
-2540 -2 -2540 -13z"/>
</g>
</svg>
