<?xml version="1.0" standalone="no"?>
<!DOCTYPE svg PUBLIC "-//W3C//DTD SVG 20010904//EN"
 "http://www.w3.org/TR/2001/REC-SVG-20010904/DTD/svg10.dtd">
<svg version="1.0" xmlns="http://www.w3.org/2000/svg"
 width="2501.000000pt" height="2501.000000pt" viewBox="0 0 2501.000000 2501.000000"
 preserveAspectRatio="xMidYMid meet">
<metadata>
Created by potrace 1.14, written by Peter Selinger 2001-2017
</metadata>
<g transform="translate(0.000000,2501.000000) scale(0.100000,-0.100000)"
fill="#000000" stroke="none">
<path d="M11885 24908 c-132 -54 -247 -103 -256 -108 -9 -4 -78 -34 -154 -65
-173 -71 -334 -147 -449 -214 -49 -28 -91 -51 -93 -51 -2 0 -9 -5 -16 -10 -7
-6 -48 -33 -92 -61 -77 -50 -289 -204 -330 -240 -11 -10 -56 -48 -100 -86
-279 -237 -571 -550 -810 -868 -49 -66 -92 -122 -95 -125 -44 -42 -350 -509
-488 -747 -150 -258 -197 -347 -361 -678 -152 -305 -169 -342 -267 -568 -36
-83 -69 -161 -74 -172 -122 -282 -310 -777 -435 -1150 -31 -93 -58 -174 -60
-180 -1 -5 -5 -17 -8 -25 -3 -8 -20 -60 -36 -115 -17 -55 -58 -190 -91 -300
-137 -446 -168 -550 -164 -554 3 -3 1044 -5 2314 -5 l2310 -1 0 3213 c0 1766
-1 3212 -2 3211 -2 0 -111 -46 -243 -101z"/>
<path d="M12880 21801 c0 -1766 3 -3211 8 -3212 34 -4 4606 -3 4613 2 6 3 5
17 0 35 -6 16 -64 209 -131 429 -107 356 -247 795 -270 850 -4 11 -34 92 -65
180 -91 259 -290 767 -355 910 -5 11 -55 121 -110 243 -110 245 -282 595 -377
767 -33 61 -74 135 -90 165 -160 291 -400 665 -612 950 -63 85 -117 157 -120
160 -3 3 -44 52 -91 110 -46 58 -89 110 -95 116 -5 6 -46 51 -90 100 -204 227
-511 512 -689 639 -15 11 -43 31 -61 45 -252 187 -484 311 -951 505 -399 166
-476 198 -506 213 -5 2 -8 -1442 -8 -3207z"/>
<path d="M9515 24656 c-104 -40 -318 -121 -475 -180 -157 -59 -298 -113 -315
-120 -16 -8 -111 -44 -210 -80 -99 -37 -218 -82 -265 -101 -47 -18 -152 -59
-235 -90 -82 -32 -174 -68 -203 -81 -29 -13 -55 -24 -57 -24 -7 0 -280 -118
-362 -156 -40 -18 -132 -61 -205 -95 -200 -94 -541 -269 -691 -356 -32 -18
-60 -33 -62 -33 -8 0 -306 -176 -462 -274 -90 -55 -171 -106 -180 -111 -19
-11 -275 -182 -383 -256 -362 -249 -799 -596 -1218 -967 -183 -161 -592 -565
-783 -772 -156 -169 -186 -202 -309 -345 -52 -61 -113 -132 -135 -159 -22 -27
-45 -54 -50 -60 -6 -6 -62 -76 -126 -156 -220 -277 -407 -533 -638 -875 -66
-99 -126 -187 -131 -195 -254 -375 -387 -580 -377 -581 54 -4 5061 -3 5068 2
8 4 77 243 93 322 10 47 169 611 186 657 5 14 23 72 40 130 85 281 267 808
371 1075 24 61 44 112 44 115 1 3 6 16 13 30 6 14 22 54 36 90 29 76 132 319
171 405 49 108 72 159 106 235 66 149 291 593 395 780 46 82 183 319 212 365
145 234 385 589 552 820 51 70 313 443 337 479 14 22 30 44 35 50 5 6 28 39
51 72 23 34 78 113 122 175 45 63 98 139 119 169 22 30 53 75 71 100 34 48 48
70 43 69 -2 0 -88 -33 -193 -73z"/>
<path d="M1239 17740 c-23 -52 -53 -120 -67 -150 -188 -414 -399 -973 -536
-1420 -77 -250 -210 -744 -230 -850 -2 -14 -16 -77 -30 -140 -15 -63 -29 -126
-31 -140 -2 -14 -13 -70 -24 -125 -18 -89 -35 -183 -47 -255 -3 -14 -9 -47
-14 -75 -5 -27 -12 -70 -15 -95 -3 -25 -10 -70 -15 -100 -19 -110 -34 -221
-45 -325 -3 -27 -7 -61 -10 -75 -2 -14 -7 -54 -11 -90 -3 -36 -7 -76 -9 -90
-3 -29 -13 -135 -21 -230 -2 -36 -7 -85 -10 -110 -2 -25 -6 -79 -9 -120 -2
-41 -7 -104 -10 -140 -12 -152 -15 -199 -20 -262 l-4 -68 2979 0 2980 0 1 78
c0 42 2 115 4 162 1 47 6 186 9 310 4 124 9 263 11 310 2 47 7 150 10 230 3
80 8 168 10 195 2 28 6 100 10 160 3 61 8 135 10 165 2 30 7 98 10 150 3 52 8
113 10 135 3 22 7 76 10 120 6 83 11 142 20 235 2 30 7 84 10 120 3 36 8 81
10 100 2 19 6 64 10 100 6 62 9 91 20 188 3 23 7 63 10 90 5 47 13 112 20 167
2 17 6 50 9 75 6 45 34 268 42 325 2 17 6 41 8 55 3 14 8 49 11 79 4 30 9 63
11 75 2 11 6 38 9 61 3 22 20 126 36 230 17 105 32 199 34 210 1 11 15 90 30
175 15 85 29 166 31 180 3 25 9 60 19 110 3 14 8 39 10 55 8 42 23 134 29 170
3 17 10 54 16 84 5 29 10 54 10 55 0 1 -1183 1 -2630 1 l-2630 0 -41 -95z"/>
<path d="M7334 17825 c-7 -19 -159 -814 -168 -880 -4 -22 -10 -62 -16 -90 -13
-71 -29 -166 -50 -300 -6 -38 -13 -81 -15 -95 -5 -31 -35 -234 -40 -275 -2
-16 -9 -66 -16 -109 -6 -44 -13 -93 -15 -110 -15 -122 -45 -361 -50 -406 -3
-30 -8 -65 -9 -78 -2 -13 -6 -55 -10 -95 -4 -40 -8 -79 -10 -87 -1 -8 -6 -51
-10 -95 -4 -44 -9 -91 -10 -105 -1 -14 -6 -63 -10 -110 -4 -47 -8 -92 -10
-100 -2 -13 -14 -159 -20 -250 -1 -19 -5 -69 -8 -110 -4 -41 -9 -115 -12 -165
-3 -49 -8 -117 -10 -150 -3 -33 -7 -114 -10 -180 -4 -66 -8 -149 -10 -185 -2
-36 -6 -135 -10 -220 -5 -148 -7 -204 -20 -582 l-6 -168 2671 0 2670 0 0 2478
0 2477 -2396 0 c-1613 0 -2398 -3 -2400 -10z"/>
<path d="M18476 17805 c2 -16 7 -37 9 -45 2 -8 6 -33 10 -55 3 -22 14 -89 25
-150 23 -129 20 -114 65 -373 19 -111 38 -219 40 -240 3 -20 8 -48 10 -62 3
-14 8 -43 11 -65 3 -22 9 -58 14 -80 5 -22 12 -65 15 -95 3 -30 10 -80 15
-110 5 -30 12 -77 15 -105 3 -27 8 -57 10 -65 2 -8 7 -40 10 -70 3 -30 12
-100 20 -155 7 -55 17 -129 20 -165 4 -36 8 -67 10 -70 2 -3 6 -41 10 -85 4
-44 9 -88 11 -98 2 -10 6 -48 10 -85 3 -36 8 -75 10 -86 2 -11 6 -52 9 -90 3
-39 7 -84 9 -101 3 -16 7 -68 11 -115 3 -47 8 -92 10 -100 2 -8 7 -60 10 -115
4 -55 8 -111 10 -125 2 -14 7 -65 10 -115 3 -49 8 -110 10 -135 3 -25 7 -88
10 -140 3 -52 8 -124 10 -160 16 -237 30 -529 41 -855 10 -291 12 -380 14
-502 l2 -113 2980 0 2979 0 -5 68 c-4 37 -8 94 -11 127 -3 33 -7 89 -10 125
-3 36 -7 99 -10 140 -6 84 -13 173 -19 240 -3 25 -7 77 -11 115 -3 39 -8 88
-10 110 -3 22 -7 60 -9 85 -5 38 -39 310 -52 405 -7 52 -39 252 -48 305 -3 14
-10 56 -16 95 -45 283 -180 871 -285 1235 -20 69 -38 132 -40 140 -2 8 -29 94
-59 190 -150 476 -317 911 -569 1475 l-45 100 -2631 0 -2630 0 5 -30z"/>
<path d="M12952 12132 l-72 -3 2 -2477 3 -2477 2393 0 c1317 0 2396 3 2398 7
4 6 107 521 118 588 3 19 10 58 15 85 15 73 21 105 27 150 3 22 9 56 14 75 5
19 12 58 15 85 4 28 8 57 10 65 3 8 7 33 10 55 4 22 9 54 11 70 3 17 7 41 9
55 2 14 6 39 9 55 13 77 57 377 71 485 3 25 8 61 11 80 2 19 7 53 9 75 8 68
17 137 20 154 1 9 6 50 10 91 4 41 8 77 10 80 1 3 6 37 9 75 4 39 8 86 11 105
2 19 7 62 10 95 3 33 8 71 10 85 2 14 7 65 10 115 4 49 8 92 10 95 2 3 6 50 9
105 4 55 8 116 11 135 5 45 17 195 30 395 3 50 8 117 10 150 7 92 21 373 30
595 6 163 13 335 20 573 l6 177 -103 0 c-869 3 -5112 4 -5166 2z"/>
<path d="M85 12063 c3 -38 7 -97 10 -133 3 -36 7 -96 10 -135 3 -38 8 -99 10
-135 3 -36 8 -92 10 -125 3 -33 7 -80 9 -105 3 -25 8 -79 11 -120 4 -41 8 -86
10 -100 2 -14 7 -54 10 -90 4 -36 9 -78 11 -95 2 -16 6 -54 10 -83 3 -29 7
-61 9 -71 2 -10 6 -42 10 -72 3 -30 10 -79 15 -109 6 -30 12 -73 15 -95 2 -22
7 -51 9 -65 3 -14 8 -43 11 -65 6 -40 11 -68 20 -115 11 -57 14 -77 20 -112 2
-21 9 -58 15 -83 6 -25 13 -62 16 -83 10 -66 92 -428 138 -610 74 -293 144
-535 260 -893 26 -81 131 -380 146 -414 7 -18 20 -51 25 -65 1 -3 5 -12 8 -20
3 -8 18 -45 31 -83 14 -37 32 -82 40 -100 8 -17 32 -77 54 -132 35 -86 77
-184 185 -430 12 -27 33 -72 47 -100 l25 -50 2628 0 c1445 0 2627 0 2627 0 0
0 -4 25 -10 55 -5 30 -11 66 -14 80 -3 14 -7 41 -10 60 -5 33 -9 51 -21 110
-3 14 -8 43 -11 65 -3 22 -14 85 -24 140 -17 93 -49 274 -55 320 -2 11 -11 65
-20 120 -9 55 -18 109 -20 120 -5 40 -26 181 -31 205 -2 14 -9 59 -15 100 -5
41 -12 87 -15 101 -2 15 -6 47 -9 70 -3 24 -10 78 -15 119 -6 42 -12 94 -15
115 -7 63 -17 139 -20 155 -1 8 -6 47 -10 85 -4 39 -8 84 -10 100 -2 17 -7 53
-10 80 -18 157 -22 199 -31 300 -4 39 -8 81 -9 95 -7 62 -15 151 -20 220 -3
41 -8 98 -10 125 -3 28 -7 82 -10 120 -3 39 -7 97 -10 130 -2 33 -7 98 -10
145 -2 47 -7 123 -10 170 -3 47 -7 123 -10 170 -3 47 -8 141 -10 210 -3 69 -7
161 -10 205 -2 44 -7 181 -11 305 -3 124 -7 270 -9 325 -2 55 -4 130 -4 168
l-1 67 -2980 0 -2980 0 5 -67z"/>
<path d="M18969 12038 c0 -51 -2 -131 -4 -178 -1 -47 -6 -182 -9 -300 -4 -118
-9 -253 -11 -300 -2 -47 -7 -146 -10 -220 -6 -130 -9 -178 -20 -360 -14 -218
-16 -259 -20 -310 -5 -60 -10 -125 -20 -265 -4 -49 -8 -103 -10 -120 -1 -16
-6 -66 -9 -110 -4 -44 -9 -96 -11 -115 -2 -19 -7 -66 -10 -105 -8 -86 -13
-138 -20 -190 -3 -22 -7 -60 -10 -85 -2 -25 -7 -70 -10 -100 -3 -30 -10 -89
-15 -130 -6 -41 -12 -95 -15 -120 -3 -25 -7 -61 -10 -80 -2 -19 -7 -55 -10
-80 -4 -25 -8 -56 -10 -70 -3 -24 -21 -152 -30 -215 -27 -201 -109 -704 -155
-960 -16 -88 -32 -173 -35 -190 -26 -147 -37 -214 -40 -235 l-3 -25 2630 0
2631 0 59 135 c32 74 67 153 77 175 10 22 37 85 61 140 23 55 48 114 55 130
210 490 457 1253 600 1855 32 135 27 113 60 270 15 69 29 134 31 145 2 11 7
34 9 50 3 17 8 37 10 45 4 14 36 192 56 310 5 30 11 64 13 76 2 12 7 45 11 74
4 29 8 60 10 69 6 30 25 166 30 216 6 49 15 115 20 145 2 8 6 51 9 95 4 44 9
87 11 95 2 8 7 53 10 100 3 47 8 99 10 115 2 17 7 73 10 125 3 52 8 111 10
130 2 19 7 76 10 125 3 50 8 115 10 145 3 30 8 85 11 123 l5 67 -2980 0 -2981
0 -1 -92z"/>
<path d="M7505 6420 c-2 -3 26 -102 61 -220 36 -118 67 -222 69 -230 2 -8 36
-118 75 -245 40 -126 74 -239 77 -250 3 -11 7 -27 10 -35 3 -8 32 -94 65 -190
68 -200 165 -475 178 -505 5 -11 48 -121 95 -245 48 -124 98 -249 111 -278 13
-29 24 -55 24 -57 0 -5 148 -345 200 -460 44 -97 280 -572 333 -670 101 -189
243 -434 337 -585 117 -187 393 -589 419 -610 3 -3 35 -43 71 -90 35 -47 72
-94 81 -105 237 -283 381 -435 630 -662 35 -31 215 -176 324 -261 6 -4 64 -44
130 -88 235 -157 393 -238 755 -388 140 -59 264 -111 275 -116 50 -23 289
-120 296 -120 5 0 9 1438 9 3208 l0 3207 -2311 0 c-1271 0 -2312 -2 -2314 -5z"/>
<path d="M12884 6415 c-2 -5 -3 -1450 -2 -3211 l3 -3201 265 109 c262 109 316
131 355 148 11 5 70 30 130 56 764 324 1457 957 2092 1909 123 184 277 435
368 600 21 39 56 102 77 140 51 92 324 639 367 735 108 241 141 317 226 523
168 406 390 1024 514 1432 84 274 117 386 172 567 32 109 59 199 59 200 0 2
-1040 3 -2311 3 -1534 0 -2313 -3 -2315 -10z"/>
<path d="M18294 6419 c-2 -3 -8 -23 -13 -45 -5 -21 -15 -57 -21 -79 -6 -22
-12 -47 -14 -55 -2 -8 -14 -51 -26 -95 -12 -44 -30 -111 -40 -150 -81 -304
-201 -703 -309 -1030 -98 -297 -273 -779 -301 -827 -6 -10 -10 -23 -10 -29 0
-6 -6 -25 -14 -42 -8 -18 -42 -99 -76 -182 -34 -82 -70 -168 -80 -190 -10 -22
-37 -83 -60 -135 -88 -199 -119 -264 -275 -575 -313 -621 -499 -919 -1105
-1775 -6 -8 -75 -107 -155 -220 -79 -113 -153 -218 -165 -235 -27 -37 -240
-341 -291 -415 -21 -30 -37 -55 -36 -57 3 -3 385 141 444 168 24 10 47 19 51
19 5 0 35 11 68 23 109 43 217 85 449 172 127 47 239 90 250 95 11 4 135 52
275 105 240 92 488 192 590 238 25 11 79 34 120 52 152 65 681 324 830 406
652 357 1157 685 1715 1113 72 55 132 103 135 106 3 3 25 21 50 40 25 19 47
37 50 40 3 3 30 25 60 50 332 272 543 464 890 810 221 221 336 341 450 470 36
40 70 78 75 84 225 247 633 761 830 1044 28 40 73 105 101 145 77 111 619 919
631 942 11 20 9 20 -2529 20 -1397 0 -2542 -3 -2544 -6z"/>
</g>
</svg>
